<svg width="36" height="44" viewBox="0 0 36 44" fill="none" xmlns="http://www.w3.org/2000/svg">
<rect x="4" y="8" width="28" height="28" rx="4" fill="white"/>
<path d="M18 14.5C17.54 14.5 17.1667 14.8733 17.1667 15.3333V21.1667H11.3333C10.8733 21.1667 10.5 21.54 10.5 22C10.5 22.46 10.8733 22.8333 11.3333 22.8333H17.1667V28.6667C17.1667 29.1267 17.54 29.5 18 29.5C18.46 29.5 18.8333 29.1267 18.8333 28.6667V22.8333H24.6667C25.1267 22.8333 25.5 22.46 25.5 22C25.5 21.54 25.1267 21.1667 24.6667 21.1667H18.8333V15.3333C18.8333 14.8733 18.46 14.5 18 14.5Z" fill="#757575"/>
</svg>
