<svg width="126" height="874" viewBox="0 0 126 874" fill="none" xmlns="http://www.w3.org/2000/svg">
<g clip-path="url(#clip0_5_1484)">
<rect width="124" height="32" transform="translate(1 1)" fill="#EEEEEE"/>
<path d="M62.7915 9.5C63.1079 9.5 63.3695 9.73501 63.4109 10.0401L63.4167 10.1249L63.4177 16.1667H69.4619C69.8071 16.1667 70.0869 16.4465 70.0869 16.7917C70.0869 17.1081 69.8518 17.3696 69.5467 17.411L69.4619 17.4167H63.4177L63.4194 23.4576C63.4194 23.8028 63.1397 24.0827 62.7945 24.0827C62.4781 24.0827 62.2165 23.8477 62.1751 23.5427L62.1694 23.4578L62.1677 17.4167H56.1268C55.7817 17.4167 55.5018 17.1368 55.5018 16.7917C55.5018 16.4753 55.737 16.2138 56.042 16.1724L56.1268 16.1667H62.1677L62.1667 10.1251C62.1666 9.77995 62.4464 9.5 62.7915 9.5Z" fill="#04071E"/>
<rect width="124" height="32" transform="translate(1 34)" fill="white"/>
<rect width="124" height="32" transform="translate(1 67)" fill="white"/>
<rect width="124" height="32" transform="translate(1 100)" fill="white"/>
<rect width="124" height="32" transform="translate(1 133)" fill="white"/>
<rect width="124" height="32" transform="translate(1 166)" fill="white"/>
<rect width="124" height="32" transform="translate(1 199)" fill="white"/>
<rect width="124" height="32" transform="translate(1 232)" fill="white"/>
<rect width="124" height="32" transform="translate(1 265)" fill="white"/>
<rect width="124" height="32" transform="translate(1 298)" fill="white"/>
<rect width="124" height="32" transform="translate(1 331)" fill="white"/>
<rect width="124" height="32" transform="translate(1 364)" fill="white"/>
<rect width="124" height="32" transform="translate(1 397)" fill="white"/>
<rect width="124" height="32" transform="translate(1 430)" fill="white"/>
<rect width="124" height="32" transform="translate(1 463)" fill="white"/>
<rect width="124" height="32" transform="translate(1 496)" fill="white"/>
<rect width="124" height="32" transform="translate(1 529)" fill="white"/>
<rect width="124" height="32" transform="translate(1 562)" fill="white"/>
<rect width="124" height="32" transform="translate(1 595)" fill="white"/>
<rect width="124" height="32" transform="translate(1 628)" fill="white"/>
<rect width="124" height="32" transform="translate(1 661)" fill="white"/>
<rect width="124" height="32" transform="translate(1 694)" fill="white"/>
<rect width="124" height="32" transform="translate(1 727)" fill="white"/>
<rect width="124" height="32" transform="translate(1 760)" fill="white"/>
<rect width="124" height="32" transform="translate(1 793)" fill="white"/>
<rect width="124" height="32" transform="translate(1 826)" fill="white"/>
<rect width="124" height="32" transform="translate(1 859)" fill="white"/>
</g>
<rect x="0.5" y="0.5" width="125" height="873" stroke="#CBCBCB" stroke-dasharray="4 6"/>
<defs>
<clipPath id="clip0_5_1484">
<rect x="1" y="1" width="124" height="872" fill="white"/>
</clipPath>
</defs>
</svg>
