<svg width="14" height="14" viewBox="0 0 14 14" fill="none" xmlns="http://www.w3.org/2000/svg">
<path d="M6.28981 0.622572C6.34369 0.337721 6.15646 0.063124 5.87161 0.00924162C5.58675 -0.0446408 5.31216 0.142596 5.25827 0.427447L4.54503 4.19802L1.22455 4.19957C0.934653 4.19971 0.69975 4.43483 0.699886 4.72473C0.700021 5.01463 0.935143 5.24953 1.22505 5.2494L4.34643 5.24794L3.68451 8.74718L0.524669 8.74866C0.234767 8.74879 -0.000135373 8.98392 5.85322e-08 9.27382C0.000135549 9.56372 0.235257 9.79862 0.52516 9.79848L3.48591 9.7971L2.80866 13.3774C2.75477 13.6623 2.94201 13.9369 3.22686 13.9908C3.51171 14.0446 3.78631 13.8574 3.84019 13.5725L4.55445 9.7966L8.38559 9.79481L7.7079 13.3774C7.65402 13.6623 7.84125 13.9369 8.1261 13.9908C8.41096 14.0446 8.68555 13.8574 8.73944 13.5725L9.45413 9.79431L12.7732 9.79276C13.0631 9.79263 13.298 9.5575 13.2978 9.2676C13.2977 8.9777 13.0626 8.7428 12.7727 8.74293L9.65273 8.74439L10.3146 5.24515L13.473 5.24368C13.7629 5.24354 13.9978 5.00842 13.9977 4.71852C13.9976 4.42861 13.7625 4.19371 13.4726 4.19385L10.5132 4.19523L11.1891 0.622572C11.2429 0.337721 11.0557 0.063124 10.7708 0.00924162C10.486 -0.0446408 10.2114 0.142596 10.1575 0.427447L9.44471 4.19573L5.61357 4.19752L6.28981 0.622572ZM5.41497 5.24744L9.24611 5.24565L8.58419 8.74489L4.75305 8.74668L5.41497 5.24744Z" fill="#AFAFAF"/>
<path d="M6.28981 0.622572C6.34369 0.337721 6.15646 0.063124 5.87161 0.00924162C5.58675 -0.0446408 5.31216 0.142596 5.25827 0.427447L4.54503 4.19802L1.22455 4.19957C0.934653 4.19971 0.69975 4.43483 0.699886 4.72473C0.700021 5.01463 0.935143 5.24953 1.22505 5.2494L4.34643 5.24794L3.68451 8.74718L0.524669 8.74866C0.234767 8.74879 -0.000135373 8.98392 5.85322e-08 9.27382C0.000135549 9.56372 0.235257 9.79862 0.52516 9.79848L3.48591 9.7971L2.80866 13.3774C2.75477 13.6623 2.94201 13.9369 3.22686 13.9908C3.51171 14.0446 3.78631 13.8574 3.84019 13.5725L4.55445 9.7966L8.38559 9.79481L7.7079 13.3774C7.65402 13.6623 7.84125 13.9369 8.1261 13.9908C8.41096 14.0446 8.68555 13.8574 8.73944 13.5725L9.45413 9.79431L12.7732 9.79276C13.0631 9.79263 13.298 9.5575 13.2978 9.2676C13.2977 8.9777 13.0626 8.7428 12.7727 8.74293L9.65273 8.74439L10.3146 5.24515L13.473 5.24368C13.7629 5.24354 13.9978 5.00842 13.9977 4.71852C13.9976 4.42861 13.7625 4.19371 13.4726 4.19385L10.5132 4.19523L11.1891 0.622572C11.2429 0.337721 11.0557 0.063124 10.7708 0.00924162C10.486 -0.0446408 10.2114 0.142596 10.1575 0.427447L9.44471 4.19573L5.61357 4.19752L6.28981 0.622572ZM5.41497 5.24744L9.24611 5.24565L8.58419 8.74489L4.75305 8.74668L5.41497 5.24744Z" fill="black" fill-opacity="0.7" style="mix-blend-mode:hue"/>
<path d="M6.28981 0.622572C6.34369 0.337721 6.15646 0.063124 5.87161 0.00924162C5.58675 -0.0446408 5.31216 0.142596 5.25827 0.427447L4.54503 4.19802L1.22455 4.19957C0.934653 4.19971 0.69975 4.43483 0.699886 4.72473C0.700021 5.01463 0.935143 5.24953 1.22505 5.2494L4.34643 5.24794L3.68451 8.74718L0.524669 8.74866C0.234767 8.74879 -0.000135373 8.98392 5.85322e-08 9.27382C0.000135549 9.56372 0.235257 9.79862 0.52516 9.79848L3.48591 9.7971L2.80866 13.3774C2.75477 13.6623 2.94201 13.9369 3.22686 13.9908C3.51171 14.0446 3.78631 13.8574 3.84019 13.5725L4.55445 9.7966L8.38559 9.79481L7.7079 13.3774C7.65402 13.6623 7.84125 13.9369 8.1261 13.9908C8.41096 14.0446 8.68555 13.8574 8.73944 13.5725L9.45413 9.79431L12.7732 9.79276C13.0631 9.79263 13.298 9.5575 13.2978 9.2676C13.2977 8.9777 13.0626 8.7428 12.7727 8.74293L9.65273 8.74439L10.3146 5.24515L13.473 5.24368C13.7629 5.24354 13.9978 5.00842 13.9977 4.71852C13.9976 4.42861 13.7625 4.19371 13.4726 4.19385L10.5132 4.19523L11.1891 0.622572C11.2429 0.337721 11.0557 0.063124 10.7708 0.00924162C10.486 -0.0446408 10.2114 0.142596 10.1575 0.427447L9.44471 4.19573L5.61357 4.19752L6.28981 0.622572ZM5.41497 5.24744L9.24611 5.24565L8.58419 8.74489L4.75305 8.74668L5.41497 5.24744Z" fill="white" fill-opacity="0.16"/>
</svg>
